<?xml version="1.0" standalone="no"?>
<!DOCTYPE svg PUBLIC "-//W3C//DTD SVG 20010904//EN"
 "http://www.w3.org/TR/2001/REC-SVG-20010904/DTD/svg10.dtd">
<svg version="1.0" xmlns="http://www.w3.org/2000/svg"
 width="399.000000pt" height="126.000000pt" viewBox="0 0 399.000000 126.000000"
 preserveAspectRatio="xMidYMid meet">

<g transform="translate(0.000000,126.000000) scale(0.100000,-0.100000)"
fill="#000000" stroke="none">
<path d="M0 750 l0 -500 185 0 185 0 0 180 0 181 102 -3 101 -3 82 -175 82
-175 202 -3 c111 -1 200 1 198 5 -2 5 -35 64 -72 133 -37 69 -83 153 -101 187
l-34 63 49 24 c62 32 109 79 135 136 17 36 21 65 21 146 0 92 -3 105 -30 160
-33 64 -94 115 -163 134 -23 6 -212 10 -489 10 l-453 0 0 -500z m724 256 c57
-24 71 -93 29 -145 -26 -31 -79 -40 -240 -41 l-143 0 0 100 0 100 160 0 c114
0 170 -4 194 -14z"/>
<path d="M1471 1023 c-191 -520 -281 -767 -281 -770 0 -2 76 -3 169 -3 l168 0
34 92 34 93 221 3 221 2 35 -92 35 -93 172 -3 c94 -1 171 -1 171 1 0 1 -83
225 -184 497 l-184 495 -263 3 -264 2 -84 -227z m418 -182 c33 -90 61 -170 61
-177 0 -11 -27 -14 -136 -14 -105 0 -135 3 -132 13 43 123 135 354 139 349 4
-4 34 -81 68 -171z"/>
<path d="M2520 755 l0 -495 463 -2 c254 -2 488 0 521 5 195 25 294 167 241
345 -17 58 -58 110 -111 142 -36 23 -44 40 -19 40 27 0 102 83 114 125 15 55
14 149 -3 188 -19 44 -71 91 -131 119 -50 23 -52 23 -562 26 l-513 3 0 -496z
m777 247 c32 -18 39 -50 15 -81 l-19 -26 -207 -3 -206 -2 0 66 0 66 198 -4
c132 -2 204 -7 219 -16z m-23 -352 c38 -14 61 -55 48 -85 -22 -49 -55 -56
-254 -53 l-183 3 -3 59 c-2 32 -1 65 2 72 4 11 43 14 185 14 99 0 191 -4 205
-10z"/>
<path d="M3845 1205 c-52 -51 -15 -135 60 -135 48 0 75 29 75 80 0 51 -27 80
-75 80 -25 0 -44 -8 -60 -25z m100 -10 c30 -30 31 -54 4 -89 -25 -31 -61 -34
-89 -6 -39 39 -12 120 40 120 12 0 32 -11 45 -25z"/>
<path d="M3877 1193 c-11 -10 -8 -93 3 -93 6 0 10 9 10 20 0 11 5 20 11 20 6
0 13 -9 16 -20 3 -11 8 -20 12 -20 9 0 7 72 -2 88 -9 13 -39 16 -50 5z m41
-25 c-6 -18 -28 -21 -28 -4 0 9 7 16 16 16 9 0 14 -5 12 -12z"/>
<path d="M3015 173 c-31 -8 -45 -23 -45 -49 0 -27 21 -39 82 -49 21 -3 40 -11
44 -16 4 -8 -14 -9 -60 -4 -44 5 -66 4 -66 -3 0 -42 143 -59 180 -22 11 11 20
26 20 33 0 21 -34 47 -61 47 -35 0 -69 11 -69 22 0 5 26 6 63 2 l62 -6 -20 21
c-21 21 -92 35 -130 24z"/>
<path d="M3375 173 c-66 -17 -89 -103 -39 -142 32 -25 96 -28 148 -6 33 14 37
19 34 48 -3 31 -5 32 -50 35 -43 3 -48 1 -48 -17 0 -15 6 -21 21 -21 11 0 17
-4 14 -10 -9 -15 -61 -12 -75 5 -30 36 18 87 61 64 22 -11 69 -12 69 -1 0 30
-85 58 -135 45z"/>
<path d="M2520 90 l0 -80 59 0 c69 0 118 15 131 40 17 32 11 75 -13 98 -20 19
-35 22 -100 22 l-77 0 0 -80z m130 25 c6 -8 9 -23 5 -35 -5 -15 -15 -20 -41
-20 -32 0 -34 2 -34 35 0 32 3 35 29 35 16 0 34 -7 41 -15z"/>
<path d="M2760 90 l0 -80 85 0 c78 0 85 2 85 19 0 17 -8 20 -52 23 -67 4 -79
28 -14 28 39 0 46 3 46 19 0 16 -8 21 -47 24 l-48 3 53 2 c45 2 52 5 52 22 0
18 -7 20 -80 20 l-80 0 0 -80z"/>
<path d="M3212 93 c3 -77 3 -78 31 -81 l27 -3 0 80 0 81 -30 0 -31 0 3 -77z"/>
<path d="M3560 90 c0 -79 0 -80 25 -80 23 0 25 4 25 40 0 22 4 40 9 40 4 0 21
-18 36 -40 23 -33 33 -40 61 -40 l34 0 0 81 0 80 -27 -3 c-23 -2 -29 -9 -33
-37 l-5 -35 -25 37 c-21 31 -31 37 -62 37 l-38 0 0 -80z"/>
</g>
</svg>
